<svg id="Layer_2" data-name="Layer 2" xmlns="http://www.w3.org/2000/svg" viewBox="0 0 106.69 62.62"><defs><style>.cls-1{fill:none;stroke-width:8px;}.cls-1,.cls-2{stroke:#fff;stroke-miterlimit:10;}.cls-2{fill:#fff;stroke-width:2px;}</style></defs><path class="cls-1" d="M187.62,364.19c3.6-3.26,8-7.83,14.42-13.15a70.34,70.34,0,0,1,14.67-10.84,7.23,7.23,0,0,1,2.62-.81,35.54,35.54,0,0,1,5.75-1.16c5.1-.56,9,.41,18.47,0,20.29-.86,32-6.47,33.45-3.46,1.2,2.57-7.52,6.42-11.54,17.3-2.2,5.95.33,7.59-1.73,14.41-.8,2.66-3.2,10.66-9.8,15-4.57,3-8,2.19-24.22,2.3-8.19.06-14,.1-20.18.58-20,1.55-27.09,6.44-30,2.88C176,382.86,181.57,369.65,187.62,364.19Z" transform="translate(-174.42 -329.9)"/><path class="cls-1" d="M227.53,338.07c-11.1,6.15-16.56,18.37-13.7,29.09,3.12,11.65,14.65,16.17,15.88,16.63" transform="translate(-174.42 -329.9)"/><ellipse class="cls-2" cx="65.43" cy="31.03" rx="7.09" ry="11.72"/></svg>